<svg width="130" height="40" viewBox="0 0 130 40" fill="none" xmlns="http://www.w3.org/2000/svg">
<path d="M36.4717 29.5813C36.4717 33.2066 36.4717 36.5272 36.4717 40.0002C34.8968 40.0002 33.4127 40.0002 31.8377 40.0002C31.8074 39.6651 31.7166 39.3299 31.7166 38.9948C31.7166 32.6582 31.656 26.3216 31.7468 19.9849C31.8377 12.3079 38.9856 6.79378 46.3152 8.80444C50.7675 10.023 53.6751 13.0086 54.5837 17.5782C55.5832 22.5744 54.0385 26.7785 49.8286 29.6727C46.0426 32.2926 41.9235 32.384 37.8044 30.282C37.4409 30.0992 37.1078 29.9164 36.4717 29.5813ZM50.1617 20.1677C50.2223 16.2987 47.3147 13.2523 43.4984 13.1913C39.5611 13.1304 36.5323 16.055 36.4717 19.9545C36.4111 23.8235 39.4702 26.9613 43.2864 26.9918C47.133 26.9918 50.1011 24.0063 50.1617 20.1677Z" fill="#092D46"/>
<path d="M18.2992 31.5919V29.764C12.9666 32.0627 7.28143 32.7054 2.94338 27.9056C-0.630556 23.9757 -0.994008 17.6696 2.09533 13.2522C5.12409 8.92622 10.9696 7.1288 15.8459 9.23086C20.6376 11.3065 23.0847 15.7156 23.0847 20.8074C23.0847 24.3718 23.0847 27.9056 23.0847 31.5919C21.5097 31.5919 19.8439 31.5919 18.2992 31.5919ZM11.4542 13.1913C7.51682 13.2522 4.6092 16.2682 4.66978 20.1981C4.73035 24.0062 7.81969 27.0222 11.6056 26.9612C15.5733 26.9003 18.4204 23.8234 18.3598 19.7411C18.2689 16.0245 15.2402 13.1303 11.4542 13.1913Z" fill="#092D46"/>
<path d="M125.215 31.5919V29.764C119.882 32.0627 114.197 32.7054 109.859 27.9056C106.285 23.9757 105.922 17.6696 109.011 13.2522C112.04 8.92622 117.885 7.1288 122.761 9.23086C127.553 11.3065 130 15.7156 130 20.8074C130 24.3718 130 27.9056 130 31.5919C128.425 31.5919 126.759 31.5919 125.215 31.5919ZM118.37 13.1913C114.432 13.2522 111.525 16.2682 111.585 20.1981C111.646 24.0062 114.735 27.0222 118.521 26.9612C122.489 26.9003 125.336 23.8234 125.275 19.7411C125.184 16.0245 122.156 13.1303 118.37 13.1913Z" fill="#092D46"/>
<path d="M75.2401 31.5919V29.764C69.9075 32.0627 64.2223 32.7054 59.8843 27.9056C56.3104 23.9757 55.9469 17.6696 59.0362 13.2522C62.065 8.92622 67.9105 7.1288 72.7868 9.23086C77.5785 11.3065 80.0256 15.7156 80.0256 20.8074C80.0256 24.3718 80.0256 27.9056 80.0256 31.5919C78.4506 31.5919 76.7848 31.5919 75.2401 31.5919ZM68.3951 13.1913C64.4577 13.2522 61.5501 16.2682 61.6107 20.1981C61.6713 24.0062 64.7606 27.0222 68.5466 26.9612C72.5142 26.9003 75.3613 23.8234 75.3007 19.7411C75.2098 16.0245 72.1811 13.1303 68.3951 13.1913Z" fill="#092D46"/>
<path d="M104.558 17.3648C103.196 17.3648 99.7979 17.3343 99.7979 17.3343C99.6976 17.046 99.7035 16.9848 99.4702 16.4813C97.5923 13.6176 94.4121 12.46 91.3228 13.5567C88.3243 14.623 86.4162 17.6999 86.8099 20.8377C87.234 24.2193 89.6873 26.6869 93.1098 26.9307C95.6539 27.1135 97.8346 26.1386 99.1673 23.9451C100.165 22.6688 99.9508 22.931 100.101 22.7266C100.101 22.7266 103.589 22.7266 104.619 22.7266C104.225 27.6618 98.6524 31.9878 93.1401 31.7136C86.7191 31.409 81.9639 26.2909 82.0245 19.8324C82.0851 13.709 87.022 8.65192 93.1401 8.4082C98.5918 8.16448 104.256 12.5209 104.558 17.3648Z" fill="#092D46"/>
<path d="M29.6569 31.6832C28.1122 31.6832 26.6584 31.6832 25.1138 31.6832C25.1138 21.0815 25.1138 10.5712 25.1138 0C26.6282 0 28.082 0 29.6569 0C29.6569 10.4798 29.6569 20.9901 29.6569 31.6832Z" fill="#092D46"/>
</svg>
