<svg width="116" height="116" viewBox="0 0 116 116" fill="none" xmlns="http://www.w3.org/2000/svg">
<g id="heroicons-solid:play">
<rect id="Rectangle 1" x="41" y="34" width="37" height="46" fill="white"/>
<path id="Vector" fill-rule="evenodd" clip-rule="evenodd" d="M58 104.4C70.306 104.4 82.1081 99.5114 90.8098 90.8097C99.5114 82.108 104.4 70.306 104.4 58C104.4 45.6939 99.5114 33.8919 90.8098 25.1902C82.1081 16.4885 70.306 11.6 58 11.6C45.694 11.6 33.8919 16.4885 25.1902 25.1902C16.4886 33.8919 11.6 45.6939 11.6 58C11.6 70.306 16.4886 82.108 25.1902 90.8097C33.8919 99.5114 45.694 104.4 58 104.4ZM55.419 41.5744C54.5455 40.9916 53.5302 40.6569 52.4814 40.6059C51.4326 40.555 50.3896 40.7897 49.4638 41.2851C48.5379 41.7805 47.7639 42.5179 47.2243 43.4187C46.6847 44.3195 46.3998 45.3499 46.4 46.4V69.6C46.3998 70.65 46.6847 71.6804 47.2243 72.5812C47.7639 73.482 48.5379 74.2195 49.4638 74.7148C50.3896 75.2102 51.4326 75.445 52.4814 75.394C53.5302 75.3431 54.5455 75.0084 55.419 74.4256L72.819 62.8256C73.6134 62.2959 74.2647 61.5783 74.7151 60.7365C75.1656 59.8947 75.4013 58.9547 75.4013 58C75.4013 57.0452 75.1656 56.1052 74.7151 55.2634C74.2647 54.4216 73.6134 53.7041 72.819 53.1744L55.419 41.5744Z" fill="#092D46"/>
</g>
</svg>
